<?xml version="1.0" encoding="UTF-8" standalone="no"?>
<svg
   version="1.1"
   id="Layer_1"
   x="0px"
   y="0px"
   width="100%"
   viewBox="0 0 752 752"
   enable-background="new 0 0 752 752"
   xml:space="preserve"
   sodipodi:docname="logoMidiKeyLinker.svg"
   inkscape:version="1.2.2 (b0a84865, 2022-12-01)"
   xmlns:inkscape="http://www.inkscape.org/namespaces/inkscape"
   xmlns:sodipodi="http://sodipodi.sourceforge.net/DTD/sodipodi-0.dtd"
   xmlns="http://www.w3.org/2000/svg"
   xmlns:svg="http://www.w3.org/2000/svg"><defs
   id="defs2899" /><sodipodi:namedview
   id="namedview2897"
   pagecolor="#ffffff"
   bordercolor="#000000"
   borderopacity="0.25"
   inkscape:showpageshadow="2"
   inkscape:pageopacity="0.0"
   inkscape:pagecheckerboard="0"
   inkscape:deskcolor="#d1d1d1"
   showgrid="false"
   inkscape:zoom="0.95258394"
   inkscape:cx="395.76565"
   inkscape:cy="346.95105"
   inkscape:window-width="1423"
   inkscape:window-height="775"
   inkscape:window-x="0"
   inkscape:window-y="25"
   inkscape:window-maximized="0"
   inkscape:current-layer="layer1" />
<path
   fill="#000000"
   opacity="1"
   stroke="none"
   d="m 179.68863,440.68539 c 0.001,-68.49631 -0.0884,-136.4928 0.0577,-204.48877 0.0456,-21.20252 8.66813,-38.44786 25.98591,-50.87589 9.79787,-7.0314 20.77236,-11.12446 33.08725,-11.00697 21.82152,0.20818 43.63768,-0.34317 65.46633,-0.22212 57.48929,0.31882 114.98282,-0.19884 172.47479,-0.25931 19.82675,-0.0209 39.65393,0.32004 59.48083,0.50365 27.45002,0.25418 53.67585,23.70047 57.11835,50.97983 0.4798,3.80134 0.95069,7.57353 0.94953,11.42373 -0.0291,100.49449 3.6e-4,200.989 -0.0264,301.48351 -0.008,31.88165 -19.87323,56.14331 -51.1416,62.24823 -5.18146,1.01166 -10.60315,1.09173 -15.91431,1.09576 -93.82816,0.0711 -187.65634,0.0435 -281.48454,0.0851 -27.48497,0.0122 -48.22183,-3.48208 -60.48542,-28.60842 -3.83514,-7.85766 -5.5487,-24.08446 -5.55473,-32.86436 -0.0227,-32.99802 -0.0118,-65.99601 -0.0137,-99.49402 M 514.78345,269.18545 c -0.12708,-10.823 0.94171,-21.82381 -0.63544,-32.4312 -3.08124,-20.72346 -20.28702,-34.72883 -41.32227,-34.77037 -58.64923,-0.11583 -117.29885,-0.0406 -175.94833,-0.009 -2.48599,10e-4 -5.00522,0.11936 -7.45239,0.52459 -17.42963,2.88627 -34.91397,18.92372 -34.61096,43.77139 0.54853,44.98022 0.15295,89.97186 0.16548,134.95874 0.008,29.65793 0.44847,59.32291 -0.0635,88.97162 -0.42662,24.70437 20.23962,43.54767 43.75277,43.3486 57.47913,-0.48675 114.96515,-0.15479 172.4484,-0.17917 2.65481,-10e-4 5.34622,-0.029 7.95849,-0.43942 21.23813,-3.33725 35.97837,-22.25937 35.845,-43.30512 -0.42119,-66.47783 -0.145,-132.9601 -0.13725,-200.44066 M 332.49994,191.34788 c 27.5455,-1.1e-4 95.62612,-0.009 140.29429,1.81746 27.07794,1.10706 27.78974,7.28224 36.9206,12.02121 4.61536,2.3954 44.18391,-4.71122 54.89842,-8.88394 -6.45788,-5.31354 -15.66201,-9.47993 -23.01437,-10.71162 -12.05786,-2.01996 -24.13706,-0.13387 -56.38968,-0.79857 -80.49964,3.2e-4 -160.99927,-0.009 -241.4989,0.0301 -3.98403,0.002 -8.06517,-0.051 -11.93596,0.73489 -25.08188,5.09265 -41.43645,25.25293 -41.44153,50.88779 -0.0188,94.83303 -0.0112,212.81516 0.0151,307.6482 0.80978,20.76441 9.10726,40.03866 14.44777,33.20416 10.811,-13.83535 24.41838,-34.32903 50.15977,-72.68459 -3.89076,-4.33723 -6.14264,-7.22522 -8.17762,-14.94957 -1.29717,-4.92376 -2.26865,-13.6579 -2.22683,-19.82505 0.16411,-24.20108 0.13944,-54.26483 0,-66.81485 -0.35659,-32.09424 0.006,-62.99978 0.0147,-94.49969 0.006,-22.3212 -0.0812,-44.64324 0.0833,-66.96335 0.1995,-27.05762 23.58811,-50.52208 52.35117,-50.22588 11.49872,0.11844 22.99973,0.0151 35.49973,0.0133"
   id="path2894"
   sodipodi:nodetypes="cssssssscssssssccssscssscscsccsscscscscscssssssc"
   style="fill:#2d2c2c;fill-opacity:1" />
<g
   inkscape:groupmode="layer"
   id="layer1"
   inkscape:label="letters"
   transform="translate(2.9872799,35.531443)"><text
     xml:space="preserve"
     style="font-style:normal;font-variant:normal;font-weight:900;font-stretch:normal;font-size:74.6667px;font-family:'Arial Black';-inkscape-font-specification:'Arial Black, Heavy';font-variant-ligatures:normal;font-variant-caps:normal;font-variant-numeric:normal;font-variant-east-asian:normal;fill:#2d2c2c;stroke:#ff0000;stroke-width:0;fill-opacity:1"
     x="284.22849"
     y="280.15891"
     id="text3123"><tspan
       sodipodi:role="line"
       id="tspan3121"
       x="284.22849"
       y="280.15891"
       style="font-style:normal;font-variant:normal;font-weight:900;font-stretch:normal;font-size:74.6667px;font-family:'Arial Black';-inkscape-font-specification:'Arial Black, Heavy';font-variant-ligatures:normal;font-variant-caps:normal;font-variant-numeric:normal;font-variant-east-asian:normal;fill:#2d2c2c;fill-opacity:1">MIDI</tspan></text><text
     xml:space="preserve"
     style="font-style:normal;font-variant:normal;font-weight:normal;font-stretch:normal;font-size:74.6667px;font-family:Arial;-inkscape-font-specification:'Arial, Normal';font-variant-ligatures:normal;font-variant-caps:normal;font-variant-numeric:normal;font-variant-east-asian:normal;fill:#2d2c2c;stroke:#ff0000;stroke-width:0;fill-opacity:1"
     x="320.31973"
     y="350.27164"
     id="text3472"><tspan
       sodipodi:role="line"
       id="tspan3470"
       x="320.31973"
       y="350.27164">key</tspan></text><text
     xml:space="preserve"
     style="font-style:normal;font-variant:normal;font-weight:normal;font-stretch:normal;font-size:74.6667px;font-family:Arial;-inkscape-font-specification:'Arial, Normal';font-variant-ligatures:normal;font-variant-caps:normal;font-variant-numeric:normal;font-variant-east-asian:normal;fill:#2d2c2c;stroke:#ff0000;stroke-width:0;fill-opacity:1"
     x="284.11234"
     y="425.75247"
     id="text3476"><tspan
       sodipodi:role="line"
       id="tspan3474"
       x="284.11234"
       y="425.75247"
       style="font-style:normal;font-variant:normal;font-weight:normal;font-stretch:normal;font-size:74.6667px;font-family:Arial;-inkscape-font-specification:'Arial, Normal';font-variant-ligatures:normal;font-variant-caps:normal;font-variant-numeric:normal;font-variant-east-asian:normal;display:inline;fill:#2d2c2c;fill-opacity:1">linker</tspan><tspan
       sodipodi:role="line"
       x="284.11234"
       y="519.08588"
       id="tspan3580"
       inkscape:label="tspan3580"
       style="font-style:normal;font-variant:normal;font-weight:normal;font-stretch:normal;font-size:74.6667px;font-family:Arial;-inkscape-font-specification:'Arial, Normal';font-variant-ligatures:normal;font-variant-caps:normal;font-variant-numeric:normal;font-variant-east-asian:normal;display:inline;fill:#2d2c2c;fill-opacity:1" /></text></g></svg>
